<?xml version="1.0" encoding="utf-8"?>
<!-- Generator: Adobe Illustrator 24.3.0, SVG Export Plug-In . SVG Version: 6.00 Build 0)  -->
<svg version="1.1" id="Layer_1" xmlns="http://www.w3.org/2000/svg" xmlns:xlink="http://www.w3.org/1999/xlink" x="0px" y="0px"
	 viewBox="0 0 1080 1080" style="enable-background:new 0 0 1080 1080;" xml:space="preserve">
<style type="text/css">
	.st0{fill:#012C57;}
	.st1{fill:#56EC17;}
	.st2{fill:#A3F588;}
	.st3{fill:#80F04A;}
	.st4{fill:#86F15D;}
	.st5{fill:#73EF40;}
	.st6{fill:#B3F583;}
	.st7{fill:#B6F691;}
	.st8{fill:#8DF150;}
	.st9{font-family:'Serpentine-BoldItalic';}
	.st10{font-size:47.0965px;}
	.st11{letter-spacing:8;}
	.st12{fill:url(#SVGID_1_);stroke:#012C57;stroke-width:3;stroke-miterlimit:10;}
	.st13{fill:url(#SVGID_2_);stroke:#012C57;stroke-width:3;stroke-miterlimit:10;}
	.st14{fill:url(#SVGID_3_);stroke:#012C57;stroke-width:3;stroke-miterlimit:10;}
	.st15{fill:url(#SVGID_4_);stroke:#012C57;stroke-width:3;stroke-miterlimit:10;}
	.st16{fill:url(#SVGID_5_);stroke:#012C57;stroke-width:3;stroke-miterlimit:10;}
	.st17{fill:url(#SVGID_6_);stroke:#012C57;stroke-width:3;stroke-miterlimit:10;}
	.st18{fill:url(#SVGID_7_);stroke:#01D800;stroke-width:3;stroke-miterlimit:10;}
	.st19{fill:url(#SVGID_8_);stroke:#01D800;stroke-width:3;stroke-miterlimit:10;}
	.st20{fill:url(#SVGID_9_);stroke:#01D800;stroke-width:3;stroke-miterlimit:10;}
	.st21{fill:url(#SVGID_10_);stroke:#01D800;stroke-width:3;stroke-miterlimit:10;}
	.st22{fill:url(#SVGID_11_);stroke:#01D800;stroke-width:3;stroke-miterlimit:10;}
	.st23{fill:url(#SVGID_12_);stroke:#01D800;stroke-width:3;stroke-miterlimit:10;}
	.st24{fill:url(#SVGID_13_);stroke:#01D800;stroke-width:3;stroke-miterlimit:10;}
</style>
<g>
	<g>
		<path class="st0" d="M756.41,660c0.06-1.44,0.7-2.69,1.13-3.98c5.53-16.79,9.97-33.84,12.69-51.32
			c2.41-15.45,3.43-30.97,2.18-46.59c-3.05-38.06-19.5-69.14-48.74-93.56c-14.84-12.4-31.31-22.21-48.6-30.72
			c-21.45-10.56-43.77-18.97-66.26-26.96c-22.48-7.99-45.15-15.43-67.48-23.84c-18.14-6.83-36.04-14.21-53.11-23.45
			c-10.6-5.74-20.83-12.05-29.94-20.02c-6.35-5.56-12.06-11.71-16.54-18.9c-12.03-19.33-12.83-39.22-2.59-59.49
			c5.94-11.76,14.7-21.11,25.44-28.65c15.56-10.93,32.48-19.07,50.64-24.66c15.45-4.75,31.26-7.55,47.4-8.5
			c23.61-1.39,46.88,0.62,69.7,6.94c18.22,5.04,34.97,13.05,49.64,25.13c15.91,13.1,27.33,29.5,35.41,48.34
			c5.41,12.61,9.05,25.76,11.99,39.12c1.36,6.16,2.52,12.37,4.16,18.47c0.58,2.17,1.2,4.34,2.33,6.31c1.62,2.81,3.93,3.24,6.45,1.2
			c1.59-1.29,2.52-3.05,3.23-4.94c1.74-4.6,2.16-9.44,2.4-14.28c0.46-9.19-0.22-18.35-1.14-27.49c-1.15-11.45-2.81-22.84-4.91-34.16
			c-0.05-0.25-0.01-0.51-0.01-1.01c1.5,0.78,2.55,1.91,3.67,2.91c10.89,9.72,20.6,20.54,29.45,32.13
			c26.05,34.11,43.45,72.18,52.15,114.21c5.06,24.46,6.83,49.16,5.8,74.1c-0.98,23.88-4.39,47.37-11.11,70.32
			c-8.13,27.76-20.51,53.41-38.36,76.28c-7.38,9.45-15.5,18.19-24.85,25.73C758.01,659.2,757.49,659.97,756.41,660z"/>
		<path class="st0" d="M341.68,674.67c-5.14-4.18-9.59-8.4-13.82-12.84c-34.59-36.27-57.54-78.89-69.43-127.53
			c-3.79-15.5-6.12-31.22-7.31-47.14c-1.35-18.19-1.06-36.35,0.7-54.48c2.96-30.46,10.23-59.8,23.35-87.56
			c9.5-20.1,21.56-38.49,36.97-54.59c4.08-4.26,8.36-8.3,12.98-11.96c0.53-0.42,1.09-0.82,1.79-1.34c0.46,1.06-0.1,1.79-0.34,2.52
			c-4.44,13.39-8.27,26.94-11.13,40.76c-3.6,17.36-5.66,34.86-4.9,52.61c0.97,22.55,6.55,43.73,19.05,62.79
			c9.5,14.49,21.85,26.1,36.03,35.89c14.89,10.28,31.04,18.14,47.73,24.96c19.71,8.05,39.96,14.52,60.29,20.76
			c21.57,6.63,43.24,12.91,64.57,20.3c18.81,6.52,37.3,13.81,54.79,23.42c11.19,6.15,21.83,13.09,31.05,22.01
			c9.03,8.73,16.28,18.66,20.08,30.77c5.01,15.94,3.15,31.29-4.44,46.02c-5.62,10.9-13.59,19.82-23.53,26.94
			c-19.74,14.14-41.59,23.6-65.2,29.1c-18.93,4.42-38.13,6.01-57.51,5.08c-21.72-1.04-42.99-4.65-63.42-12.38
			c-16.46-6.23-31.31-15.07-43.8-27.62c-12.13-12.19-20.57-26.64-26.35-42.74c-3.72-10.37-6.08-21.09-8.33-31.84
			c-0.71-3.39-1.41-6.77-2.54-10.05c-0.42-1.23-0.9-2.44-1.66-3.5c-1.28-1.79-2.72-2.16-4.75-1.28c-1.77,0.77-2.87,2.18-3.73,3.83
			c-1.88,3.6-2.49,7.54-2.91,11.5c-1.12,10.74-0.25,21.45,0.79,32.14c1.1,11.38,2.78,22.67,4.84,33.91
			C341.66,673.49,341.64,673.84,341.68,674.67z"/>
		<path class="st1" d="M717.04,686.99c12.48-38.13,15.92-80.96-0.46-117.57c-12.03-26.87-33.83-48.39-58.18-64.93
			c-27.49-18.68-58.37-31.59-89.62-42.53c-30.86-10.81-62.87-19.1-92.02-34.26c-14.48-7.53-28.36-15.97-41.13-26.13
			c-14.96-11.89-27.92-25.61-37.54-42.28c-5.9-10.22-9.92-21.13-12.04-32.71c-1.53-8.38-1.8-16.85-1.02-25.35
			c2.1-22.77,11.37-42.6,24.97-60.62c6.28-8.32,13.32-15.94,21.46-22.49c0.52-0.12,0.76,0.05,0.64,0.6
			c-5.86,9.11-11.04,18.6-15.32,28.55c-5.12,11.89-8.87,24.18-10.41,37.09c-1.86,15.48,0.18,30.42,6.64,44.62
			c4.38,9.61,10.66,17.99,18,25.57c8.73,9.01,18.67,16.49,29.27,23.12c21.77,13.59,45.28,23.4,69.43,31.79
			c16.42,5.7,33.16,10.39,49.66,15.83c22.22,7.32,43.78,16.21,64.32,27.47c19.75,10.82,38.13,23.53,54.33,39.27
			c29.27,28.44,48.03,65.76,48.39,107.06c0.28,31.68-10.3,63.36-29.57,88.51C716.9,687.4,716.97,687.2,717.04,686.99z"/>
		<path class="st1" d="M661.73,715.47c2.27-6.72,4.4-13.47,6.05-20.37c3.29-13.78,5.17-27.72,4.85-41.91
			c-0.39-17.78-3.98-34.86-11.61-50.98c-5.22-11.02-12.04-20.99-20.16-30.08c-12.46-13.94-27.09-25.18-43.01-34.85
			c-15.56-9.46-31.96-17.19-48.8-24.07c-18.12-7.4-36.76-13.22-55.45-18.92c-14.56-4.44-29.03-9.14-43.18-14.76
			c-24.21-9.62-47.38-21.23-68.3-36.89c-14.01-10.49-26.42-22.61-36.19-37.28c-8.14-12.22-13.5-25.53-15.56-40.06
			c-1.74-12.21-1.05-24.34,2.23-36.27c7.25-26.4,22.61-47.38,43.38-64.72c0.45-0.38,0.84-0.9,1.54-0.84l-0.02-0.02
			c-0.02,0.95-0.76,1.52-1.23,2.22c-9.73,14.55-17.56,30.01-22.33,46.91c-2.43,8.61-3.94,17.4-3.87,26.37
			c0.12,15.56,4.42,29.83,13.37,42.67c6.35,9.11,14.1,16.84,22.79,23.66c10.66,8.37,22.23,15.27,34.32,21.36
			c18.28,9.22,37.33,16.47,56.74,22.84c14.71,4.83,29.63,8.94,44.41,13.55c17.78,5.54,35.15,12.13,52.02,20
			c17.46,8.14,34.17,17.62,49.57,29.21c19.1,14.37,35.95,30.93,48.24,51.71c8.82,14.91,14.97,30.79,17.66,47.92
			c1.99,12.65,2.06,25.33,0.32,38.03c-2.92,21.36-10.37,41-22,59.1c-1.59,2.47-3.21,4.93-5.17,7.14
			C661.83,716.2,661.53,716.07,661.73,715.47z"/>
		<path class="st2" d="M661.77,717.11c-0.21,0.58-0.55,1.03-1.22,1.3c-0.1-0.78,0.18-1.35,0.64-1.87
			C661.55,716.56,661.62,716.87,661.77,717.11z"/>
		<path class="st3" d="M432.09,218.73c-0.21-0.2-0.43-0.4-0.64-0.6c0.21-0.49,0.64-0.76,1.06-1.03c0.26-0.19,0.49-0.17,0.69,0.08
			C432.94,217.77,432.66,218.36,432.09,218.73z"/>
		<path class="st4" d="M716.83,686.92c0.19,0.19,0.38,0.39,0.57,0.58c-0.14,0.56-0.48,0.96-0.98,1.24
			c-0.25-0.23-0.29-0.49-0.11-0.78C716.36,687.56,716.44,687.16,716.83,686.92z"/>
		<path class="st5" d="M661.77,717.11c-0.19-0.19-0.39-0.38-0.58-0.57c0.09-0.4,0.15-0.82,0.54-1.07c0.21,0.22,0.41,0.43,0.62,0.65
			C662.15,716.45,661.96,716.78,661.77,717.11z"/>
		<path class="st6" d="M433.21,217.18c-0.23-0.03-0.46-0.05-0.69-0.08c0.19-0.37,0.51-0.8,0.89-0.62
			C433.78,216.65,433.53,217,433.21,217.18z"/>
		<path class="st7" d="M716.3,687.96c0.04,0.26,0.07,0.52,0.11,0.78c-0.02,0.25-0.07,0.5-0.39,0.43c-0.07-0.02-0.17-0.28-0.13-0.39
			C716,688.5,716.16,688.24,716.3,687.96z"/>
		<path class="st8" d="M377.52,263.45c0.04-0.13,0.08-0.26,0.13-0.39c0.08,0.07,0.15,0.14,0.23,0.21c-0.13,0.05-0.25,0.1-0.38,0.15
			C377.49,263.43,377.52,263.45,377.52,263.45z"/>
	</g>
	<text transform="matrix(1 0 0 1 90.9378 871.7885)" class="st9 st10 st11">Powered by Second Shot</text>
	<g>
		<g>
			<linearGradient id="SVGID_1_" gradientUnits="userSpaceOnUse" x1="124.4204" y1="758.1962" x2="124.4204" y2="806.4369">
				<stop  offset="0" style="stop-color:#7E94A9"/>
				<stop  offset="0.0658" style="stop-color:#7B91A7"/>
				<stop  offset="0.1187" style="stop-color:#7189A0"/>
				<stop  offset="0.1671" style="stop-color:#607B95"/>
				<stop  offset="0.2128" style="stop-color:#486786"/>
				<stop  offset="0.2566" style="stop-color:#294E71"/>
				<stop  offset="0.2985" style="stop-color:#042F59"/>
				<stop  offset="0.3017" style="stop-color:#012C57"/>
				<stop  offset="0.4272" style="stop-color:#0A2A4A"/>
				<stop  offset="0.5559" style="stop-color:#102842"/>
				<stop  offset="0.6219" style="stop-color:#153250"/>
				<stop  offset="0.7142" style="stop-color:#1A3A5C"/>
				<stop  offset="0.8045" style="stop-color:#1C3D60"/>
				<stop  offset="0.8846" style="stop-color:#183757"/>
				<stop  offset="1" style="stop-color:#102842"/>
			</linearGradient>
			<path class="st12" d="M154.38,757.98l-1.07,11.31c-2.5-1.04-5.31-1.56-8.41-1.56h-15.65c-2.86,0-4.59,1.26-5.19,3.77l-7.69,31.83
				c-0.12,0.55-0.18,1.01-0.18,1.38c0,1.6,1.16,2.39,3.49,2.39h12.34c4.11,0,7.09-0.18,8.94-0.55c1.31-0.24,2.89-0.8,4.74-1.66
				l-4.74,11.96h-35.24c-7.51,0-11.27-3.34-11.27-10.03c0-2.08,0.33-4.51,0.98-7.27l5.9-24.29c2.8-11.53,9.03-17.29,18.69-17.29
				H154.38z"/>
			<linearGradient id="SVGID_2_" gradientUnits="userSpaceOnUse" x1="180.9004" y1="758.1962" x2="180.9004" y2="806.4369">
				<stop  offset="0" style="stop-color:#7E94A9"/>
				<stop  offset="0.0658" style="stop-color:#7B91A7"/>
				<stop  offset="0.1187" style="stop-color:#7189A0"/>
				<stop  offset="0.1671" style="stop-color:#607B95"/>
				<stop  offset="0.2128" style="stop-color:#486786"/>
				<stop  offset="0.2566" style="stop-color:#294E71"/>
				<stop  offset="0.2985" style="stop-color:#042F59"/>
				<stop  offset="0.3017" style="stop-color:#012C57"/>
				<stop  offset="0.4272" style="stop-color:#0A2A4A"/>
				<stop  offset="0.5559" style="stop-color:#102842"/>
				<stop  offset="0.6219" style="stop-color:#153250"/>
				<stop  offset="0.7142" style="stop-color:#1A3A5C"/>
				<stop  offset="0.8045" style="stop-color:#1C3D60"/>
				<stop  offset="0.8846" style="stop-color:#183757"/>
				<stop  offset="1" style="stop-color:#102842"/>
			</linearGradient>
			<path class="st13" d="M191.41,801.03h-25.13l-5.81,8.09c-0.84,1.1-1.4,2.27-1.7,3.5c-0.3,1.35-0.21,2.76,0.27,4.23h-16.19
				c3.64-3.62,6.68-7.17,9.12-10.67l31.75-44.89l-1.7-3.31h25.85l8.05,50.78c0.48,3,1.49,5.7,3.04,8.09h-28.71
				c1.25-1.72,1.97-3,2.15-3.86c0.42-1.66,0.51-3.13,0.27-4.42L191.41,801.03z M173.07,791.28h16.9l-3.31-19.87L173.07,791.28z"/>
			<linearGradient id="SVGID_3_" gradientUnits="userSpaceOnUse" x1="257.1819" y1="758.1962" x2="257.1819" y2="806.4369">
				<stop  offset="0" style="stop-color:#7E94A9"/>
				<stop  offset="0.0658" style="stop-color:#7B91A7"/>
				<stop  offset="0.1187" style="stop-color:#7189A0"/>
				<stop  offset="0.1671" style="stop-color:#607B95"/>
				<stop  offset="0.2128" style="stop-color:#486786"/>
				<stop  offset="0.2566" style="stop-color:#294E71"/>
				<stop  offset="0.2985" style="stop-color:#042F59"/>
				<stop  offset="0.3017" style="stop-color:#012C57"/>
				<stop  offset="0.4272" style="stop-color:#0A2A4A"/>
				<stop  offset="0.5559" style="stop-color:#102842"/>
				<stop  offset="0.6219" style="stop-color:#153250"/>
				<stop  offset="0.7142" style="stop-color:#1A3A5C"/>
				<stop  offset="0.8045" style="stop-color:#1C3D60"/>
				<stop  offset="0.8846" style="stop-color:#183757"/>
				<stop  offset="1" style="stop-color:#102842"/>
			</linearGradient>
			<path class="st14" d="M257.09,791.28h-6.71l-3.76,15.45c-1.01,4.17-1.22,7.54-0.63,10.12h-25.4c1.79-2.58,3.19-5.95,4.2-10.12
				l9.39-38.63c0.66-2.64,0.98-4.72,0.98-6.25c0-1.35-0.27-2.64-0.81-3.86h47.04c4.17,0,7.27,0.61,9.3,1.84
				c2.03,1.23,3.04,3.34,3.04,6.35c0,1.35-0.24,2.94-0.72,4.78l-2.59,10.85c-0.95,3.86-2.48,6.47-4.56,7.82
				c-1.31,0.86-3.49,1.41-6.53,1.66l3.76,16.56c0.42,1.72,0.8,3.42,1.16,5.11c0.36,1.69,0.83,2.99,1.43,3.91H261.3L257.09,791.28z
				 M256.11,767.73l-3.31,13.8h12.34c1.37,0,2.35-0.2,2.95-0.6c0.6-0.4,1.07-1.3,1.43-2.71l1.7-7.17c0.18-0.67,0.27-1.23,0.27-1.66
				c0-1.1-1.01-1.66-3.04-1.66H256.11z"/>
			<linearGradient id="SVGID_4_" gradientUnits="userSpaceOnUse" x1="322.9554" y1="758.1962" x2="322.9554" y2="806.4369">
				<stop  offset="0" style="stop-color:#7E94A9"/>
				<stop  offset="0.0658" style="stop-color:#7B91A7"/>
				<stop  offset="0.1187" style="stop-color:#7189A0"/>
				<stop  offset="0.1671" style="stop-color:#607B95"/>
				<stop  offset="0.2128" style="stop-color:#486786"/>
				<stop  offset="0.2566" style="stop-color:#294E71"/>
				<stop  offset="0.2985" style="stop-color:#042F59"/>
				<stop  offset="0.3017" style="stop-color:#012C57"/>
				<stop  offset="0.4272" style="stop-color:#0A2A4A"/>
				<stop  offset="0.5559" style="stop-color:#102842"/>
				<stop  offset="0.6219" style="stop-color:#153250"/>
				<stop  offset="0.7142" style="stop-color:#1A3A5C"/>
				<stop  offset="0.8045" style="stop-color:#1C3D60"/>
				<stop  offset="0.8846" style="stop-color:#183757"/>
				<stop  offset="1" style="stop-color:#102842"/>
			</linearGradient>
			<path class="st15" d="M316.96,807.1h18.96c3.4,0,6.83-0.52,10.29-1.56l-4.74,11.31h-50.44c1.79-2.58,3.19-5.95,4.2-10.12
				l9.39-38.63c1.01-4.17,1.25-7.54,0.72-10.12h49.55l-0.98,11.31c-3.04-1.04-6.23-1.56-9.57-1.56h-17.8l-3.31,13.8h15.56
				c3.22,0,6.62-0.52,10.2-1.56l-3.13,12.88c-3.04-1.04-6.2-1.56-9.48-1.56h-15.56L316.96,807.1z"/>
			<linearGradient id="SVGID_5_" gradientUnits="userSpaceOnUse" x1="381.4656" y1="758.1962" x2="381.4656" y2="806.4369">
				<stop  offset="0" style="stop-color:#7E94A9"/>
				<stop  offset="0.0658" style="stop-color:#7B91A7"/>
				<stop  offset="0.1187" style="stop-color:#7189A0"/>
				<stop  offset="0.1671" style="stop-color:#607B95"/>
				<stop  offset="0.2128" style="stop-color:#486786"/>
				<stop  offset="0.2566" style="stop-color:#294E71"/>
				<stop  offset="0.2985" style="stop-color:#042F59"/>
				<stop  offset="0.3017" style="stop-color:#012C57"/>
				<stop  offset="0.4272" style="stop-color:#0A2A4A"/>
				<stop  offset="0.5559" style="stop-color:#102842"/>
				<stop  offset="0.6219" style="stop-color:#153250"/>
				<stop  offset="0.7142" style="stop-color:#1A3A5C"/>
				<stop  offset="0.8045" style="stop-color:#1C3D60"/>
				<stop  offset="0.8846" style="stop-color:#183757"/>
				<stop  offset="1" style="stop-color:#102842"/>
			</linearGradient>
			<path class="st16" d="M375.47,807.1h18.96c3.4,0,6.83-0.52,10.29-1.56l-4.74,11.31h-50.44c1.79-2.58,3.19-5.95,4.2-10.12
				l9.39-38.63c1.01-4.17,1.25-7.54,0.72-10.12h49.55l-0.98,11.31c-3.04-1.04-6.23-1.56-9.57-1.56h-17.8l-3.31,13.8h15.56
				c3.22,0,6.62-0.52,10.2-1.56l-3.13,12.88c-3.04-1.04-6.2-1.56-9.48-1.56h-15.56L375.47,807.1z"/>
			<linearGradient id="SVGID_6_" gradientUnits="userSpaceOnUse" x1="444.6267" y1="758.1962" x2="444.6267" y2="806.4369">
				<stop  offset="0" style="stop-color:#7E94A9"/>
				<stop  offset="0.0658" style="stop-color:#7B91A7"/>
				<stop  offset="0.1187" style="stop-color:#7189A0"/>
				<stop  offset="0.1671" style="stop-color:#607B95"/>
				<stop  offset="0.2128" style="stop-color:#486786"/>
				<stop  offset="0.2566" style="stop-color:#294E71"/>
				<stop  offset="0.2985" style="stop-color:#042F59"/>
				<stop  offset="0.3017" style="stop-color:#012C57"/>
				<stop  offset="0.4272" style="stop-color:#0A2A4A"/>
				<stop  offset="0.5559" style="stop-color:#102842"/>
				<stop  offset="0.6219" style="stop-color:#153250"/>
				<stop  offset="0.7142" style="stop-color:#1A3A5C"/>
				<stop  offset="0.8045" style="stop-color:#1C3D60"/>
				<stop  offset="0.8846" style="stop-color:#183757"/>
				<stop  offset="1" style="stop-color:#102842"/>
			</linearGradient>
			<path class="st17" d="M444.54,791.28h-6.71l-3.76,15.45c-1.01,4.17-1.22,7.54-0.63,10.12h-25.4c1.79-2.58,3.19-5.95,4.2-10.12
				l9.39-38.63c0.66-2.64,0.98-4.72,0.98-6.25c0-1.35-0.27-2.64-0.81-3.86h47.04c4.17,0,7.27,0.61,9.3,1.84
				c2.03,1.23,3.04,3.34,3.04,6.35c0,1.35-0.24,2.94-0.72,4.78l-2.59,10.85c-0.95,3.86-2.48,6.47-4.56,7.82
				c-1.31,0.86-3.49,1.41-6.53,1.66l3.76,16.56c0.42,1.72,0.8,3.42,1.16,5.11c0.36,1.69,0.83,2.99,1.43,3.91h-24.42L444.54,791.28z
				 M443.55,767.73l-3.31,13.8h12.34c1.37,0,2.35-0.2,2.95-0.6c0.6-0.4,1.07-1.3,1.43-2.71l1.7-7.17c0.18-0.67,0.27-1.23,0.27-1.66
				c0-1.1-1.01-1.66-3.04-1.66H443.55z"/>
		</g>
		<linearGradient id="SVGID_7_" gradientUnits="userSpaceOnUse" x1="553.8763" y1="816.9509" x2="553.8763" y2="769.0532">
			<stop  offset="0" style="stop-color:#01D800"/>
			<stop  offset="0.2424" style="stop-color:#04D905"/>
			<stop  offset="0.5326" style="stop-color:#11900F"/>
			<stop  offset="0.7584" style="stop-color:#01D800"/>
			<stop  offset="1" style="stop-color:#86EC86"/>
		</linearGradient>
		<path class="st18" d="M529.06,757.98h54.38l-1.16,12.14c-2.09-1.59-4.62-2.39-7.6-2.39h-9.93l-9.48,39
			c-1.01,4.17-1.22,7.54-0.63,10.12h-25.4c1.79-2.58,3.19-5.95,4.2-10.12l9.48-39h-9.93c-2.98,0-5.87,0.8-8.68,2.39L529.06,757.98z"
			/>
		<linearGradient id="SVGID_8_" gradientUnits="userSpaceOnUse" x1="611.8504" y1="816.9509" x2="611.8504" y2="769.0532">
			<stop  offset="0" style="stop-color:#01D800"/>
			<stop  offset="0.2424" style="stop-color:#04D905"/>
			<stop  offset="0.5326" style="stop-color:#11900F"/>
			<stop  offset="0.7584" style="stop-color:#01D800"/>
			<stop  offset="1" style="stop-color:#86EC86"/>
		</linearGradient>
		<path class="st19" d="M578.04,799.56l5.9-24.29c2.8-11.53,9.03-17.29,18.69-17.29h32.74c7.51,0,11.27,3.34,11.27,10.03
			c0,2.09-0.33,4.51-0.98,7.27l-5.9,24.29c-2.8,11.53-9.03,17.29-18.69,17.29h-32.73c-7.51,0-11.27-3.34-11.27-10.03
			C577.06,804.74,577.39,802.32,578.04,799.56z M606.66,771.5l-7.69,31.83c-0.12,0.55-0.18,1.01-0.18,1.38
			c0,1.6,1.16,2.39,3.49,2.39h9.48c2.86,0,4.62-1.26,5.28-3.77l7.69-31.83c0.12-0.55,0.18-1.01,0.18-1.38
			c0-1.59-1.19-2.39-3.58-2.39h-9.48C608.99,767.73,607.26,768.99,606.66,771.5z"/>
		<linearGradient id="SVGID_9_" gradientUnits="userSpaceOnUse" x1="682.4363" y1="816.9509" x2="682.4363" y2="769.0532">
			<stop  offset="0" style="stop-color:#01D800"/>
			<stop  offset="0.2424" style="stop-color:#04D905"/>
			<stop  offset="0.5326" style="stop-color:#11900F"/>
			<stop  offset="0.7584" style="stop-color:#01D800"/>
			<stop  offset="1" style="stop-color:#86EC86"/>
		</linearGradient>
		<path class="st20" d="M648.63,799.56l5.9-24.29c2.8-11.53,9.03-17.29,18.69-17.29h32.74c7.51,0,11.27,3.34,11.27,10.03
			c0,2.09-0.33,4.51-0.98,7.27l-5.9,24.29c-2.8,11.53-9.03,17.29-18.69,17.29h-32.73c-7.51,0-11.27-3.34-11.27-10.03
			C647.64,804.74,647.97,802.32,648.63,799.56z M677.25,771.5l-7.69,31.83c-0.12,0.55-0.18,1.01-0.18,1.38
			c0,1.6,1.16,2.39,3.49,2.39h9.48c2.86,0,4.62-1.26,5.28-3.77l7.69-31.83c0.12-0.55,0.18-1.01,0.18-1.38
			c0-1.59-1.19-2.39-3.58-2.39h-9.48C679.57,767.73,677.84,768.99,677.25,771.5z"/>
		<linearGradient id="SVGID_10_" gradientUnits="userSpaceOnUse" x1="742.0833" y1="816.9509" x2="742.0833" y2="769.0532">
			<stop  offset="0" style="stop-color:#01D800"/>
			<stop  offset="0.2424" style="stop-color:#04D905"/>
			<stop  offset="0.5326" style="stop-color:#11900F"/>
			<stop  offset="0.7584" style="stop-color:#01D800"/>
			<stop  offset="1" style="stop-color:#86EC86"/>
		</linearGradient>
		<path class="st21" d="M740.97,807.1h18.25c4.29,0,7.6-0.64,9.93-1.93l-4.74,11.68h-49.37c1.79-2.58,3.19-5.95,4.2-10.12
			l9.39-38.63c1.01-4.17,1.25-7.54,0.71-10.12h25.4c-1.85,2.58-3.28,5.95-4.29,10.12L740.97,807.1z"/>
		<linearGradient id="SVGID_11_" gradientUnits="userSpaceOnUse" x1="807.5735" y1="816.9509" x2="807.5735" y2="769.0532">
			<stop  offset="0" style="stop-color:#01D800"/>
			<stop  offset="0.2424" style="stop-color:#04D905"/>
			<stop  offset="0.5326" style="stop-color:#11900F"/>
			<stop  offset="0.7584" style="stop-color:#01D800"/>
			<stop  offset="1" style="stop-color:#86EC86"/>
		</linearGradient>
		<path class="st22" d="M774.97,806.73l9.39-38.63c1.01-4.17,1.25-7.54,0.72-10.12h46.87c8.29,0,12.43,2.64,12.43,7.91
			c0,1.17-0.18,2.58-0.54,4.23l-1.7,6.72c-0.83,3.5-2.47,5.92-4.92,7.27c-1.97,1.04-5.22,1.75-9.75,2.12v0.18
			c4.05,0.55,6.8,1.17,8.23,1.84c1.67,0.8,2.5,2.12,2.5,3.96c0,0.74-0.15,1.66-0.45,2.76l-2.33,9.75c-0.95,3.99-2.62,6.9-5.01,8.74
			c-2.86,2.27-7.13,3.4-12.79,3.4h-46.87C772.56,814.28,773.96,810.91,774.97,806.73z M800.55,791.28l-3.85,15.82h12.7
			c1.43,0,2.44-0.2,3.04-0.6c0.59-0.4,1.04-1.3,1.34-2.71l2.24-9.2c0.18-0.67,0.27-1.23,0.27-1.66c0-1.1-1.01-1.66-3.04-1.66H800.55
			z M806.28,767.73l-3.31,13.8h12.7c1.37,0,2.35-0.2,2.95-0.6c0.6-0.4,1.07-1.3,1.43-2.71l1.7-7.17c0.18-0.67,0.27-1.23,0.27-1.66
			c0-1.1-1.01-1.66-3.04-1.66H806.28z"/>
		<linearGradient id="SVGID_12_" gradientUnits="userSpaceOnUse" x1="879.1151" y1="816.9509" x2="879.1151" y2="769.0532">
			<stop  offset="0" style="stop-color:#01D800"/>
			<stop  offset="0.2424" style="stop-color:#04D905"/>
			<stop  offset="0.5326" style="stop-color:#11900F"/>
			<stop  offset="0.7584" style="stop-color:#01D800"/>
			<stop  offset="1" style="stop-color:#86EC86"/>
		</linearGradient>
		<path class="st23" d="M845.31,799.56l5.9-24.29c2.8-11.53,9.03-17.29,18.69-17.29h32.74c7.51,0,11.27,3.34,11.27,10.03
			c0,2.09-0.33,4.51-0.98,7.27l-5.9,24.29c-2.8,11.53-9.03,17.29-18.69,17.29h-32.73c-7.51,0-11.27-3.34-11.27-10.03
			C844.32,804.74,844.65,802.32,845.31,799.56z M873.93,771.5l-7.69,31.83c-0.12,0.55-0.18,1.01-0.18,1.38
			c0,1.6,1.16,2.39,3.49,2.39h9.48c2.86,0,4.62-1.26,5.28-3.77l7.69-31.83c0.12-0.55,0.18-1.01,0.18-1.38
			c0-1.59-1.19-2.39-3.58-2.39h-9.48C876.25,767.73,874.52,768.99,873.93,771.5z"/>
		<linearGradient id="SVGID_13_" gradientUnits="userSpaceOnUse" x1="946.0423" y1="816.9509" x2="946.0423" y2="769.0532">
			<stop  offset="0" style="stop-color:#01D800"/>
			<stop  offset="0.2424" style="stop-color:#04D905"/>
			<stop  offset="0.5326" style="stop-color:#11900F"/>
			<stop  offset="0.7584" style="stop-color:#01D800"/>
			<stop  offset="1" style="stop-color:#86EC86"/>
		</linearGradient>
		<path class="st24" d="M949.08,764.97l4.56,10.12l11.27-9.38c3.28-2.76,5.4-5.33,6.35-7.73h17.8c-3.76,2.21-7.87,5.18-12.34,8.92
			L957.67,783l12.25,25.76c1.01,2.21,1.79,3.71,2.33,4.51c0.83,1.41,1.82,2.61,2.95,3.59h-31.3c0.48-1.72,0.71-3.04,0.71-3.96
			c0-1.04-0.6-2.79-1.79-5.24l-4.2-8.65l-12.25,10.3c-3.52,2.94-5.67,5.46-6.44,7.54h-16.9c1.79-1.16,5.66-4.08,11.63-8.74
			l20.21-17.02l-12.34-25.02c-1.73-3.43-3.73-6.13-5.99-8.09h32.2C948.07,760.68,948.19,763.01,949.08,764.97z"/>
	</g>
</g>
</svg>
