<svg width="198" height="132" viewBox="0 0 198 132" fill="none" xmlns="http://www.w3.org/2000/svg">
<path d="M137.592 41.7351C135.266 45.8866 130.171 46.4571 122.009 45.6681C115.87 45.0737 110.272 44.6137 104.134 41.2666C99.8367 38.9257 96.4353 35.7582 93.9528 32.682C91.2628 29.3493 87.5079 25.5461 89.3486 21.7674C91.8781 16.5769 106.507 12.2051 120.711 19.3542C136.315 27.2098 139.868 37.6775 137.592 41.7351Z" fill="url(#paint0_linear_2894_14368)"/>
<path d="M40.8427 42.7627C44.2437 44.8011 49.1229 42.9168 49.1229 42.9168C49.1229 42.9168 48.4849 37.7285 45.0819 35.6925C41.6809 33.6541 36.8037 35.536 36.8037 35.536C36.8037 35.536 37.4417 40.7243 40.8427 42.7627Z" fill="url(#paint1_linear_2894_14368)"/>
<path d="M152.511 76.665C150.74 76.665 149.304 78.1011 149.304 79.8726C149.304 81.644 150.74 83.0801 152.511 83.0801C154.283 83.0801 155.719 81.644 155.719 79.8726C155.719 78.1011 154.283 76.665 152.511 76.665Z" fill="url(#paint2_linear_2894_14368)"/>
<path d="M45.0745 54.8678C43.6163 54.8678 42.4342 56.0499 42.4342 57.5081C42.4342 58.9663 43.6163 60.1484 45.0745 60.1484C46.5327 60.1484 47.7148 58.9663 47.7148 57.5081C47.7148 56.0499 46.5327 54.8678 45.0745 54.8678Z" fill="url(#paint3_linear_2894_14368)"/>
<path d="M45.4412 95.098C43.7805 95.098 42.4342 93.7517 42.4342 92.091C42.4342 90.4303 43.7805 89.084 45.4412 89.084C47.102 89.084 48.4482 90.4303 48.4482 92.091C48.4482 93.7517 47.102 95.098 45.4412 95.098Z" fill="url(#paint4_linear_2894_14368)"/>
<path d="M145.082 56.2675C144.307 56.2675 143.679 55.6392 143.679 54.8642C143.679 54.0892 144.307 53.4609 145.082 53.4609C145.857 53.4609 146.485 54.0892 146.485 54.8642C146.485 55.6392 145.857 56.2675 145.082 56.2675Z" fill="url(#paint5_linear_2894_14368)"/>
<path d="M98.6108 121.052C97.6143 121.052 96.8065 120.244 96.8065 119.248C96.8065 118.251 97.6143 117.443 98.6108 117.443C99.6072 117.443 100.415 118.251 100.415 119.248C100.415 120.244 99.6072 121.052 98.6108 121.052Z" fill="#E1E4E5"/>
<path d="M125.785 111.176C124.69 111.176 123.802 110.288 123.802 109.192C123.802 108.097 124.69 107.209 125.785 107.209C126.881 107.209 127.769 108.097 127.769 109.192C127.769 110.288 126.881 111.176 125.785 111.176Z" fill="#E1E4E5"/>
<path d="M146.587 37.0136C145.369 37.0136 144.382 36.0264 144.382 34.8085C144.382 33.5907 145.369 32.6035 146.587 32.6035C147.805 32.6035 148.792 33.5907 148.792 34.8085C148.792 36.0264 147.805 37.0136 146.587 37.0136Z" fill="#E1E4E5"/>
<path d="M148.543 106.481C148.826 107.538 148.199 108.624 147.143 108.907C146.086 109.19 145.001 108.563 144.718 107.506C144.435 106.45 145.061 105.364 146.118 105.081C147.174 104.798 148.26 105.425 148.543 106.481Z" fill="#E1E4E5"/>
<path d="M65.9262 31.5442C64.4712 31.5442 63.2918 30.3647 63.2918 28.9098C63.2918 27.4548 64.4712 26.2754 65.9262 26.2754C67.3811 26.2754 68.5605 27.4548 68.5605 28.9098C68.5605 30.3647 67.3811 31.5442 65.9262 31.5442Z" fill="#E1E4E5"/>
<path d="M48.5342 109.732C47.4152 109.732 46.508 109.007 46.508 108.111C46.508 107.216 47.4152 106.49 48.5342 106.49C49.6533 106.49 50.5605 107.216 50.5605 108.111C50.5605 109.007 49.6533 109.732 48.5342 109.732Z" fill="#E1E4E5"/>
<path d="M69.2196 107.59C69.8087 109.788 68.504 112.048 66.3055 112.637C64.1069 113.226 61.8471 111.921 61.258 109.723C60.669 107.524 61.9737 105.265 64.1722 104.676C66.3707 104.086 68.6305 105.391 69.2196 107.59Z" fill="#E1E4E5"/>
<path d="M146.552 89.9902H146.605C146.919 94.4379 150.227 94.5065 150.227 94.5065C150.227 94.5065 146.579 94.5775 146.579 99.7168C146.579 94.5775 142.932 94.5065 142.932 94.5065C142.932 94.5065 146.238 94.4379 146.552 89.9902Z" fill="#E1E4E5"/>
<path d="M36.9588 25.668L64.7035 18.234C66.6146 17.7218 68.3338 17.3558 69.9272 17.2599C78.3776 16.3667 82.0318 21.2501 86.0268 36.1594L93.1185 62.6259C97.1135 77.5353 96.3904 83.5915 88.6256 87.0433C87.1977 87.7567 85.5258 88.2993 83.6147 88.8115L55.87 96.2455C53.9587 96.7577 52.2395 97.1238 50.6463 97.2196C42.1959 98.1129 38.5415 93.2297 34.5465 78.3201L27.4548 51.8536C23.46 36.9443 24.1831 30.888 31.9479 27.4362C33.3756 26.7229 35.0475 26.1803 36.9588 25.668Z" fill="#FCFCFC" stroke="#E1E4E5" stroke-width="3"/>
<path d="M60.4206 40.8277L70.2887 38.1836M45.116 57.0161L45.1725 57.0009L73.3107 49.4613M47.9918 67.7481L48.0483 67.733L76.1865 60.1935M50.8675 78.4803L50.9238 78.4651L79.062 70.9255M50.8179 43.4007L50.8431 43.3939M42.3594 45.6671L42.3847 45.6603" stroke="#E1E4E5" stroke-width="3" stroke-linecap="round" stroke-linejoin="round"/>
<path d="M133.298 18.234L161.042 25.6683C162.954 26.1803 164.626 26.7229 166.053 27.4365C173.818 30.888 174.541 36.9443 170.546 51.8538L163.455 78.3203C159.46 93.2297 155.805 98.1131 147.355 97.2198C145.762 97.1238 144.042 96.7577 142.131 96.2455L114.387 88.8115C112.475 88.2993 110.803 87.7569 109.376 87.0433C101.611 83.5915 100.888 77.5355 104.883 62.6259L111.974 36.1594C115.969 21.2498 119.624 16.3667 128.074 17.2599C129.667 17.356 131.386 17.722 133.298 18.234Z" fill="#FCFCFC" stroke="#E1E4E5" stroke-width="3"/>
<path d="M146.037 43.0935L155.905 45.7376M124.689 49.4606L124.745 49.4758L152.883 57.0154M121.813 60.193L121.869 60.2081L150.008 67.7477M118.938 70.9248L118.994 70.94L147.132 78.4796M136.434 40.5205L136.46 40.5273M127.976 38.2539L128.001 38.2607" stroke="#E1E4E5" stroke-width="3" stroke-linecap="round" stroke-linejoin="round"/>
<path d="M82.3438 10.7148H115.568C117.857 10.7148 119.888 10.8204 121.696 11.1901C131.405 12.722 134.026 19.2723 134.026 37.1266V68.8206C134.026 86.6749 131.405 93.225 121.696 94.7568C119.888 95.1266 117.857 95.2324 115.568 95.2324H82.3438C80.055 95.2324 78.0245 95.1266 76.2157 94.7568C66.5067 93.225 63.8857 86.6749 63.8857 68.8206V37.1266C63.8857 19.2723 66.5067 12.722 76.2157 11.1901C78.0245 10.8204 80.055 10.7148 82.3438 10.7148Z" fill="#FCFCFC" stroke="#E1E4E5" stroke-width="3"/>
<path d="M104.021 34.676H115.838M82.0742 48.1812H115.838M82.0742 61.033H115.838M82.0742 73.8851H115.838M92.5212 34.6758H92.5515M82.3919 34.6758H82.4222" stroke="#E1E4E5" stroke-width="3" stroke-linecap="round" stroke-linejoin="round"/>
<defs>
<linearGradient id="paint0_linear_2894_14368" x1="121.921" y1="68.6418" x2="101.186" y2="-24.5303" gradientUnits="userSpaceOnUse">
<stop stop-color="white"/>
<stop offset="1" stop-color="#EEEEEE"/>
</linearGradient>
<linearGradient id="paint1_linear_2894_14368" x1="54.0034" y1="49.3239" x2="26.6381" y2="23.8982" gradientUnits="userSpaceOnUse">
<stop stop-color="white"/>
<stop offset="1" stop-color="#EEEEEE"/>
</linearGradient>
<linearGradient id="paint2_linear_2894_14368" x1="155.719" y1="76.665" x2="149.563" y2="76.4252" gradientUnits="userSpaceOnUse">
<stop stop-color="#1C2F40"/>
<stop offset="1" stop-color="#20415E"/>
</linearGradient>
<linearGradient id="paint3_linear_2894_14368" x1="47.7148" y1="54.8678" x2="42.6476" y2="54.6704" gradientUnits="userSpaceOnUse">
<stop stop-color="#1C2F40"/>
<stop offset="1" stop-color="#20415E"/>
</linearGradient>
<linearGradient id="paint4_linear_2894_14368" x1="48.4482" y1="95.098" x2="42.6773" y2="95.3229" gradientUnits="userSpaceOnUse">
<stop stop-color="#1C2F40"/>
<stop offset="1" stop-color="#20415E"/>
</linearGradient>
<linearGradient id="paint5_linear_2894_14368" x1="146.485" y1="56.2675" x2="143.792" y2="56.3724" gradientUnits="userSpaceOnUse">
<stop stop-color="#1C2F40"/>
<stop offset="1" stop-color="#20415E"/>
</linearGradient>
</defs>
</svg>
